<svg width="22" height="16" viewBox="0 0 22 16" fill="none" xmlns="http://www.w3.org/2000/svg">
<path d="M18.1968 1.34C16.8588 0.714 15.4282 0.259052 13.9326 0C13.7489 0.332095 13.5343 0.77877 13.3863 1.1341C11.7964 0.894993 10.2211 0.894993 8.66042 1.1341C8.51249 0.77877 8.29302 0.332095 8.10769 0C6.61042 0.259052 5.17817 0.715671 3.84021 1.34331C1.14154 5.42136 0.409977 9.39811 0.775761 13.3184C2.56566 14.655 4.30029 15.467 6.00564 15.9984C6.4267 15.4189 6.80224 14.8028 7.12575 14.1536C6.50961 13.9195 5.91948 13.6306 5.36188 13.2952C5.50981 13.1856 5.65451 13.071 5.79431 12.9531C9.19527 14.5438 12.8905 14.5438 16.2508 12.9531C16.3923 13.071 16.5369 13.1856 16.6833 13.2952C16.124 13.6322 15.5323 13.9211 14.9161 14.1553C15.2396 14.8028 15.6136 15.4205 16.0362 16C17.7432 15.4687 19.4795 14.6567 21.2694 13.3184C21.6986 8.77378 20.5362 4.83355 18.1968 1.34ZM7.58908 10.9075C6.56815 10.9075 5.7309 9.95435 5.7309 8.7937C5.7309 7.63305 6.55027 6.67831 7.58908 6.67831C8.62792 6.67831 9.46514 7.63138 9.44726 8.7937C9.44888 9.95435 8.62792 10.9075 7.58908 10.9075ZM14.4561 10.9075C13.4351 10.9075 12.5979 9.95435 12.5979 8.7937C12.5979 7.63305 13.4172 6.67831 14.4561 6.67831C15.4949 6.67831 16.3321 7.63138 16.3142 8.7937C16.3142 9.95435 15.4949 10.9075 14.4561 10.9075Z" fill="#D3CACA"/>
</svg>
