<svg width="16" height="16" viewBox="0 0 16 16" fill="none" xmlns="http://www.w3.org/2000/svg">
<path d="M4.13655 15.847C3.07965 15.8441 2.06696 15.4226 1.32028 14.6746C0.573598 13.9266 0.153799 12.9131 0.152832 11.8562L0.152832 4.13655C0.153965 3.08035 0.574041 2.06773 1.32089 1.32089C2.06773 0.574041 3.08035 0.153965 4.13655 0.152832H11.8562C12.9132 0.153638 13.9267 0.573385 14.6747 1.3201C15.4228 2.06681 15.8443 3.0796 15.847 4.13655V11.8562C15.8446 12.9139 15.4233 13.9276 14.6754 14.6754C13.9276 15.4233 12.9139 15.8446 11.8562 15.847H4.13655ZM3.31717 7.99975C3.31711 8.94132 3.59626 9.86176 4.11932 10.6447C4.64238 11.4276 5.38586 12.0378 6.25574 12.3982C7.12562 12.7585 8.08282 12.8529 9.0063 12.6692C9.92978 12.4855 10.7781 12.0322 11.4439 11.3664C12.1097 10.7006 12.5631 9.85238 12.7468 8.92891C12.9305 8.00545 12.8363 7.04824 12.476 6.17834C12.1157 5.30844 11.5055 4.56492 10.7226 4.04181C9.93973 3.51869 9.01931 3.23948 8.07775 3.23948C6.81574 3.24118 5.6059 3.74325 4.7135 4.63559C3.82109 5.52794 3.31895 6.73775 3.31717 7.99975ZM11.9835 2.91467C11.983 3.13909 12.0492 3.3586 12.1737 3.54537C12.2981 3.73215 12.4751 3.87781 12.6824 3.96389C12.8896 4.04996 13.1178 4.0726 13.3379 4.02892C13.5581 3.98524 13.7603 3.87721 13.919 3.71852C14.0777 3.55983 14.1857 3.35761 14.2294 3.13748C14.273 2.91734 14.2504 2.6892 14.1643 2.48194C14.0783 2.27468 13.9326 2.09763 13.7458 1.97321C13.559 1.84879 13.3395 1.7826 13.1151 1.78302C12.8153 1.78391 12.5279 1.90342 12.3159 2.11545C12.1039 2.32749 11.9844 2.61481 11.9835 2.91467ZM4.8189 7.99975C4.81751 7.396 4.99526 6.80541 5.32967 6.30273C5.66408 5.80005 6.1401 5.40788 6.69749 5.17586C7.25487 4.94383 7.86857 4.88239 8.46089 4.9993C9.05321 5.11621 9.59754 5.40622 10.025 5.83262C10.4524 6.25902 10.7437 6.80264 10.8621 7.39469C10.9804 7.98673 10.9204 8.60057 10.6897 9.15851C10.4591 9.71645 10.068 10.1934 9.56617 10.529C9.06429 10.8647 8.47413 11.0438 7.87038 11.0439C7.06277 11.0425 6.28852 10.7216 5.71676 10.1512C5.145 9.58084 4.82221 8.80736 4.8189 7.99975Z" fill="#D3CACA"/>
</svg>
