<svg width="15" height="16" viewBox="0 0 15 16" fill="none" xmlns="http://www.w3.org/2000/svg">
<path d="M12.6248 3.42183C12.5168 3.36602 12.4117 3.30483 12.3098 3.23851C12.0136 3.04267 11.742 2.81191 11.5009 2.55121C10.8976 1.86091 10.6722 1.16061 10.5892 0.6703H10.5926C10.5232 0.26332 10.5519 0 10.5562 0H7.80838V10.6255C7.80838 10.7681 7.80838 10.9091 7.80238 11.0484C7.80238 11.0658 7.80071 11.0818 7.79971 11.1004C7.79971 11.1081 7.79971 11.1161 7.79805 11.1241C7.79805 11.1261 7.79805 11.1281 7.79805 11.1301C7.76908 11.5114 7.64687 11.8796 7.44217 12.2026C7.23746 12.5255 6.95654 12.7931 6.62411 12.982C6.27764 13.1791 5.88578 13.2825 5.48716 13.282C4.20689 13.282 3.16928 12.2381 3.16928 10.9488C3.16928 9.65952 4.20689 8.61557 5.48716 8.61557C5.72951 8.61535 5.97037 8.65348 6.20079 8.72856L6.20413 5.9307C5.50462 5.84035 4.79397 5.89594 4.11702 6.09398C3.44007 6.29201 2.81151 6.62819 2.27099 7.08131C1.79737 7.49283 1.39919 7.98383 1.09438 8.53224C0.978388 8.73223 0.540743 9.53586 0.487745 10.8401C0.454414 11.5804 0.676736 12.3474 0.782731 12.6644V12.671C0.849394 12.8577 1.10771 13.4947 1.52869 14.0316C1.86816 14.4624 2.26922 14.8407 2.71897 15.1546V15.1479L2.72563 15.1546C4.0559 16.0585 5.53083 15.9992 5.53083 15.9992C5.78615 15.9889 6.64144 15.9992 7.61272 15.5389C8.69 15.0286 9.30331 14.2683 9.30331 14.2683C9.69511 13.814 10.0067 13.2963 10.2246 12.7374C10.4732 12.0837 10.5562 11.2998 10.5562 10.9865V5.3494C10.5896 5.3694 11.0336 5.66305 11.0336 5.66305C11.0336 5.66305 11.6732 6.07303 12.6711 6.34002C13.3871 6.53001 14.3517 6.57001 14.3517 6.57001V3.84214C14.0137 3.87881 13.3274 3.77215 12.6248 3.42183Z" fill="#D3CACA"/>
</svg>
